<?xml version="1.0" standalone="yes"?>
<svg xmlns="http://www.w3.org/2000/svg" width="350" height="350">
<path style="fill:#ffffff; stroke:none;" d="M0 0L0 350L350 350L350 0L0 0z"/>
<path style="fill:#979697; stroke:none;" d="M281 58L281 59L284 59L281 58z"/>
<path style="fill:#343031; stroke:none;" d="M296 103C293.273 113.788 282.574 121.426 275 129L224 180C217.31 186.69 205.612 194.696 203 204C212.712 202.501 221.325 189.675 228 183L277 134C283.887 127.113 295.273 119.183 298.991 110C300.301 106.763 299.477 103.243 300.589 100C302.45 94.5727 307 90.8366 308.319 85C311.199 72.2509 300.649 59.434 288 58.3287C277.886 57.445 271.545 64.4554 265 71L232 104C182.865 153.135 136.287 203.713 87 253C71.8129 268.187 63.2805 283.555 52.5756 302C50.0248 306.395 42.1376 315.527 45.7855 320.768C50.3372 327.307 60.4235 318.777 65 316.15C82.7865 305.939 98.4441 297.556 113 283C173.646 222.354 235.362 163.638 296 103z"/>
<path style="fill:#979697; stroke:none;" d="M289 58L289 59L292 59L289 58M278 59L279 60L278 59M294 59L295 60L294 59M276 60L277 61L276 60M296 60L297 61L296 60M274 61L275 62L274 61M298 61L299 62L298 61M273 62L274 63L273 62M299 62L300 63L299 62M272 63L273 64L272 63z"/>
<path style="fill:#9a090c; stroke:none;" d="M298 94C305.213 83.8105 306.281 69.5068 292 64.2639C287.529 62.6225 275.207 62.9139 275.207 70.0154C275.207 74.8834 283.846 80.8465 287 84C290.531 87.5304 293.915 91.1225 298 94z"/>
<path style="fill:#979697; stroke:none;" d="M300 63L301 64L300 63M271 64L272 65L271 64M301 64L302 65L301 64M270 65L271 66L270 65M302 65L303 66L302 65M269 66L270 67L269 66M303 66L304 67L303 66M268 67L269 68L268 67M304 67L305 68L304 67M267 68L268 69L267 68M305 68L306 69L305 68M266 69L267 70L266 69M265 70L266 71L265 70M306 70L307 71L306 70M264 71L265 72L264 71M263 72L264 73L263 72M307.333 72.6667L307.667 73.3333L307.333 72.6667M262 73L263 74L262 73M261 74L262 75L261 74z"/>
<path style="fill:#7f1595; stroke:none;" d="M271 74C257.372 79.5164 244.379 98.6209 234 109L210 133L191 152C188.778 154.227 184.207 157.497 184.207 161C184.207 165.634 192.015 171.015 195 174C197.769 176.769 202.523 183.607 207 183.079C213.425 182.321 221.616 170.384 226 166L274 118C278.205 113.795 291.764 104.281 291.794 98C291.831 90.401 275.272 80.0639 271 74z"/>
<path style="fill:#979697; stroke:none;" d="M260 75L261 76L260 75M308 75L308 78L309 78L308 75M259 76L260 77L259 76M258 77L259 78L258 77M257 78L258 79L257 78M256 79L257 80L256 79M255 80L256 81L255 80M254 81L255 82L254 81M253 82L254 83L253 82M252 83L253 84L252 83M251 84L252 85L251 84M308 84L308 87L309 87L308 84M250 85L251 86L250 85M249 86L250 87L249 86M248 87L249 88L248 87M247 88L248 89L247 88M307 88L308 89L307 88M246 89L247 90L246 89M245 90L246 91L245 90M306 90L307 91L306 90M244 91L245 92L244 91M243 92L244 93L243 92M305 92L306 93L305 92M242 93L243 94L242 93M304 93L305 94L304 93M241 94L242 95L241 94M240 95L241 96L240 95M239 96L240 97L239 96M238 97L239 98L238 97M237 98L238 99L237 98M236 99L237 100L236 99M235 100L236 101L235 100M300 100L300 107L301 107L300 100M234 101L235 102L234 101M233 102L234 103L233 102M232 103L233 104L232 103M295 103L295 106L296 106L295 103M231 104L232 105L231 104M230 105L231 106L230 105M229 106L230 107L229 106M228 107L229 108L228 107M294.333 107.667L294.667 108.333L294.333 107.667M227 108L228 109L227 108M226 109L227 110L226 109M293 109L294 110L293 109M299 109L300 110L299 109M225 110L226 111L225 110M224 111L225 112L224 111M292 111L293 112L292 111M298 111L299 112L298 111M223 112L224 113L223 112M291 112L292 113L291 112M222 113L223 114L222 113M290 113L291 114L290 113M297 113L298 114L297 113M221 114L222 115L221 114M289 114L290 115L289 114M296 114L297 115L296 114M220 115L221 116L220 115M288 115L289 116L288 115M295 115L296 116L295 115M219 116L220 117L219 116M287 116L288 117L287 116M294 116L295 117L294 116M218 117L219 118L218 117M286 117L287 118L286 117M293 117L294 118L293 117M217 118L218 119L217 118M285 118L286 119L285 118M292 118L293 119L292 118M216 119L217 120L216 119M284 119L285 120L284 119M291 119L292 120L291 119M215 120L216 121L215 120M283 120L284 121L283 120M290 120L291 121L290 120M214 121L215 122L214 121M282 121L283 122L282 121M289 121L290 122L289 121M213 122L214 123L213 122M281 122L282 123L281 122M288 122L289 123L288 122M212 123L213 124L212 123M280 123L281 124L280 123M287 123L288 124L287 123M211 124L212 125L211 124M279 124L280 125L279 124M286 124L287 125L286 124M210 125L211 126L210 125M278 125L279 126L278 125M285 125L286 126L285 125M209 126L210 127L209 126M277 126L278 127L277 126M284 126L285 127L284 126M208 127L209 128L208 127M276 127L277 128L276 127M283 127L284 128L283 127M207 128L208 129L207 128M275 128L276 129L275 128M282 128L283 129L282 128M206 129L207 130L206 129M274 129L275 130L274 129M281 129L282 130L281 129M205 130L206 131L205 130M273 130L274 131L273 130M280 130L281 131L280 130M204 131L205 132L204 131M272 131L273 132L272 131M279 131L280 132L279 131M203 132L204 133L203 132M271 132L272 133L271 132M278 132L279 133L278 132M202 133L203 134L202 133M270 133L271 134L270 133M277 133L278 134L277 133M201 134L202 135L201 134M269 134L270 135L269 134M276 134L277 135L276 134M200 135L201 136L200 135M268 135L269 136L268 135M275 135L276 136L275 135M199 136L200 137L199 136M267 136L268 137L267 136M274 136L275 137L274 136M198 137L199 138L198 137M266 137L267 138L266 137M273 137L274 138L273 137M197 138L198 139L197 138M265 138L266 139L265 138M272 138L273 139L272 138M196 139L197 140L196 139M264 139L265 140L264 139M271 139L272 140L271 139M195 140L196 141L195 140M263 140L264 141L263 140M270 140L271 141L270 140M194 141L195 142L194 141M262 141L263 142L262 141M269 141L270 142L269 141M193 142L194 143L193 142M261 142L262 143L261 142M268 142L269 143L268 142M192 143L193 144L192 143M260 143L261 144L260 143M267 143L268 144L267 143M191 144L192 145L191 144M259 144L260 145L259 144M266 144L267 145L266 144M190 145L191 146L190 145M258 145L259 146L258 145M265 145L266 146L265 145M189 146L190 147L189 146M257 146L258 147L257 146M264 146L265 147L264 146M188 147L189 148L188 147M256 147L257 148L256 147M263 147L264 148L263 147M187 148L188 149L187 148M255 148L256 149L255 148M262 148L263 149L262 148M186 149L187 150L186 149M254 149L255 150L254 149M261 149L262 150L261 149M185 150L186 151L185 150M253 150L254 151L253 150M260 150L261 151L260 150M184 151L185 152L184 151M252 151L253 152L252 151M259 151L260 152L259 151M183 152L184 153L183 152M251 152L252 153L251 152M258 152L259 153L258 152M182 153L183 154L182 153M250 153L251 154L250 153M257 153L258 154L257 153M181 154L182 155L181 154M249 154L250 155L249 154M256 154L257 155L256 154M180 155L181 156L180 155M248 155L249 156L248 155M255 155L256 156L255 155M179 156L180 157L179 156M247 156L248 157L247 156M254 156L255 157L254 156M178 157L179 158L178 157M246 157L247 158L246 157M253 157L254 158L253 157M177 158L178 159L177 158M245 158L246 159L245 158M252 158L253 159L252 158M176 159L177 160L176 159M244 159L245 160L244 159M251 159L252 160L251 159M243 160L244 161L243 160M250 160L251 161L250 160M176 161L177 162L176 161M242 161L243 162L242 161M249 161L250 162L249 161M241 162L242 163L241 162M248 162L249 163L248 162M176 163L177 164L176 163M240 163L241 164L240 163M247 163L248 164L247 163M175 164L176 165L175 164M239 164L240 165L239 164M246 164L247 165L246 164M174 165L175 166L174 165M238 165L239 166L238 165M245 165L246 166L245 165M173 166L174 167L173 166M237 166L238 167L237 166M244 166L245 167L244 166M172 167L173 168L172 167z"/>
<path style="fill:#9a090c; stroke:none;" d="M180 168.346C170.701 170.664 158.736 188.264 152 195L99 248C90.9864 256.014 79.5386 264.325 73.608 274C69.4005 280.864 84.0039 296.211 91 295.534C99.7647 294.686 111.98 277.02 118 271L175 214C182.15 206.85 194.895 198.151 199.248 189C201.668 183.913 185.219 167.045 180 168.346z"/>
<path style="fill:#979697; stroke:none;" d="M236 167L237 168L236 167M243 167L244 168L243 167M171 168L172 169L171 168M235 168L236 169L235 168M242 168L243 169L242 168M170 169L171 170L170 169M234 169L235 170L234 169M241 169L242 170L241 169M169 170L170 171L169 170M233 170L234 171L233 170M240 170L241 171L240 170M168 171L169 172L168 171M232 171L233 172L232 171M239 171L240 172L239 171M167 172L168 173L167 172M231 172L232 173L231 172M238 172L239 173L238 172M166 173L167 174L166 173M230 173L231 174L230 173M237 173L238 174L237 173M165 174L166 175L165 174M229 174L230 175L229 174M236 174L237 175L236 174M164 175L165 176L164 175M228 175L229 176L228 175M235 175L236 176L235 175M163 176L164 177L163 176M227 176L228 177L227 176M234 176L235 177L234 176M162 177L163 178L162 177M226 177L227 178L226 177M233 177L234 178L233 177M161 178L162 179L161 178M225 178L226 179L225 178M232 178L233 179L232 178M160 179L161 180L160 179M224 179L225 180L224 179M231 179L232 180L231 179M159 180L160 181L159 180M223 180L224 181L223 180M230 180L231 181L230 180M158 181L159 182L158 181M222 181L223 182L222 181M229 181L230 182L229 181M157 182L158 183L157 182M221 182L222 183L221 182M228 182L229 183L228 182M156 183L157 184L156 183M220 183L221 184L220 183M227 183L228 184L227 183M155 184L156 185L155 184M219 184L220 185L219 184M226 184L227 185L226 184M154 185L155 186L154 185M218 185L219 186L218 185M225 185L226 186L225 185M153 186L154 187L153 186M217 186L218 187L217 186M224 186L225 187L224 186M152 187L153 188L152 187M216 187L217 188L216 187M223 187L224 188L223 187M151 188L152 189L151 188M215 188L216 189L215 188M222 188L223 189L222 188M150 189L151 190L150 189M214 189L215 190L214 189M221 189L222 190L221 189M149 190L150 191L149 190M213 190L214 191L213 190M220 190L221 191L220 190M148 191L149 192L148 191M204 191L205 192L204 191M212 191L213 192L212 191M219 191L220 192L219 191M147 192L148 193L147 192M203 192L204 193L203 192M211 192L212 193L211 192M218 192L219 193L218 192M146 193L147 194L146 193M202 193L203 194L202 193M210 193L211 194L210 193M217 193L218 194L217 193M145 194L146 195L145 194M201 194L202 195L201 194M209 194L210 195L209 194M216 194L217 195L216 194M144 195L145 196L144 195M200 195L201 196L200 195M208 195L209 196L208 195M215 195L216 196L215 195M143 196L144 197L143 196M199 196L200 197L199 196M207 196L208 197L207 196M214 196L215 197L214 196M142 197L143 198L142 197M198 197L199 198L198 197M206 197L207 198L206 197M213 197L214 198L213 197M141 198L142 199L141 198M197 198L198 199L197 198M205 198L206 199L205 198M212 198L213 199L212 198M140 199L141 200L140 199M196 199L197 200L196 199M204 199L205 200L204 199M211 199L212 200L211 199M139 200L140 201L139 200M195 200L196 201L195 200M203 200L204 201L203 200M210 200L211 201L210 200M138 201L139 202L138 201M194 201L195 202L194 201M209 201L210 202L209 201M137 202L138 203L137 202M193 202L194 203L193 202M202 202L203 203L202 202M208 202L209 203L208 202M136 203L137 204L136 203M192 203L193 204L192 203M207 203L208 204L207 203M135 204L136 205L135 204M191 204L192 205L191 204M204 204L204 205L207 205L204 204M134 205L135 206L134 205M190 205L191 206L190 205M133 206L134 207L133 206M189 206L190 207L189 206M132 207L133 208L132 207M188 207L189 208L188 207M131 208L132 209L131 208M187 208L188 209L187 208M130 209L131 210L130 209M186 209L187 210L186 209M129 210L130 211L129 210M185 210L186 211L185 210M128 211L129 212L128 211M184 211L185 212L184 211M127 212L128 213L127 212M183 212L184 213L183 212M126 213L127 214L126 213M182 213L183 214L182 213M125 214L126 215L125 214M181 214L182 215L181 214M124 215L125 216L124 215M180 215L181 216L180 215M123 216L124 217L123 216M179 216L180 217L179 216M122 217L123 218L122 217M178 217L179 218L178 217M121 218L122 219L121 218M177 218L178 219L177 218M120 219L121 220L120 219M176 219L177 220L176 219M119 220L120 221L119 220M175 220L176 221L175 220M118 221L119 222L118 221M174 221L175 222L174 221M117 222L118 223L117 222M173 222L174 223L173 222M116 223L117 224L116 223M172 223L173 224L172 223M115 224L116 225L115 224M171 224L172 225L171 224M114 225L115 226L114 225M170 225L171 226L170 225M113 226L114 227L113 226M169 226L170 227L169 226M112 227L113 228L112 227M168 227L169 228L168 227M111 228L112 229L111 228M167 228L168 229L167 228M110 229L111 230L110 229M166 229L167 230L166 229M109 230L110 231L109 230M165 230L166 231L165 230M108 231L109 232L108 231M164 231L165 232L164 231M107 232L108 233L107 232M163 232L164 233L163 232M106 233L107 234L106 233M162 233L163 234L162 233M105 234L106 235L105 234M161 234L162 235L161 234M104 235L105 236L104 235M160 235L161 236L160 235M103 236L104 237L103 236M159 236L160 237L159 236M102 237L103 238L102 237M158 237L159 238L158 237M101 238L102 239L101 238M157 238L158 239L157 238M100 239L101 240L100 239M156 239L157 240L156 239M99 240L100 241L99 240M155 240L156 241L155 240M98 241L99 242L98 241M154 241L155 242L154 241M97 242L98 243L97 242M153 242L154 243L153 242M96 243L97 244L96 243M152 243L153 244L152 243M95 244L96 245L95 244M151 244L152 245L151 244M94 245L95 246L94 245M150 245L151 246L150 245M93 246L94 247L93 246M149 246L150 247L149 246M92 247L93 248L92 247M148 247L149 248L148 247M91 248L92 249L91 248M147 248L148 249L147 248M90 249L91 250L90 249M146 249L147 250L146 249M89 250L90 251L89 250M145 250L146 251L145 250M88 251L89 252L88 251M144 251L145 252L144 251M87 252L88 253L87 252M143 252L144 253L143 252M86 253L87 254L86 253M142 253L143 254L142 253M85 254L86 255L85 254M141 254L142 255L141 254M84 255L85 256L84 255M140 255L141 256L140 255M83 256L84 257L83 256M139 256L140 257L139 256M82 257L83 258L82 257M138 257L139 258L138 257M81 258L82 259L81 258M137 258L138 259L137 258M80 259L81 260L80 259M136 259L137 260L136 259M79 260L80 261L79 260M135 260L136 261L135 260M78 261L79 262L78 261M134 261L135 262L134 261M77 262L78 263L77 262M133 262L134 263L133 262M76 263L77 264L76 263M132 263L133 264L132 263M75 264L76 265L75 264M131 264L132 265L131 264M74 265L75 266L74 265M130 265L131 266L130 265M73 266L74 267L73 266M129 266L130 267L129 266M72 267L73 268L72 267M128 267L129 268L128 267M71 268L72 269L71 268M127 268L128 269L127 268M70 269L71 270L70 269M126 269L127 270L126 269M69 270L70 271L69 270M125 270L126 271L125 270M68 271L69 272L68 271M124 271L125 272L124 271M123 272L124 273L123 272M67 273L68 274L67 273M122 273L123 274L122 273M121 274L122 275L121 274M66 275L66 279L67 279L66 275M120 275L121 276L120 275M119 276L120 277L119 276M118 277L119 278L118 277M117 278L118 279L117 278M65 279L66 280L65 279M116 279L117 280L116 279M115 280L116 281L115 280M64 281L65 282L64 281M114 281L115 282L114 281M113 282L114 283L113 282M63 283L64 284L63 283M112 283L113 284L112 283M62 284L63 285L62 284M111 284L112 285L111 284M110 285L111 286L110 285M61 286L62 287L61 286M69 286L66 295C62.2339 295.756 52.8681 307.837 58.4491 310.84C63.3418 313.472 78.0305 301.884 82 299L82 298L69 286M109 286L110 287L109 286z"/>
<path style="fill:#343031; stroke:none;" d="M69.3333 287.667L69.6667 288.333L69.3333 287.667z"/>
<path style="fill:#979697; stroke:none;" d="M108 287L109 288L108 287M60 288L61 289L60 288M107 288L108 289L107 288M106 289L107 290L106 289M59 290L60 291L59 290M105 290L106 291L105 290M58 291L59 292L58 291M104 291L105 292L104 291M103 292L104 293L103 292M57 293L58 294L57 293z"/>
<path style="fill:#343031; stroke:none;" d="M74 293L75 294L74 293z"/>
<path style="fill:#979697; stroke:none;" d="M102 293L103 294L102 293M101 294L102 295L101 294M56 295L57 296L56 295M100 295L101 296L100 295M55 296L56 297L55 296M99 296L100 297L99 296z"/>
<path style="fill:#343031; stroke:none;" d="M78 297L79 298L78 297z"/>
<path style="fill:#979697; stroke:none;" d="M98 297L99 298L98 297M54 298L55 299L54 298z"/>
<path style="fill:#343031; stroke:none;" d="M80 298L81 299L80 298z"/>
<path style="fill:#979697; stroke:none;" d="M97 298L98 299L97 298M96 299L97 300L96 299M53 300L54 301L53 300M94 300L95 301L94 300M89 301L89 302L93 302L89 301M52 302L53 303L52 302M88 302L89 303L88 302M51 303L52 304L51 303z"/>
<path style="fill:#343031; stroke:none;" d="M72 303L73 304L72 303z"/>
<path style="fill:#979697; stroke:none;" d="M86 303L87 304L86 303M84 304L85 305L84 304M50 305L51 306L50 305z"/>
<path style="fill:#343031; stroke:none;" d="M63 305L64 306L63 305z"/>
<path style="fill:#979697; stroke:none;" d="M83 305L84 306L83 305z"/>
<path style="fill:#343031; stroke:none;" d="M66 306L67 307L66 306z"/>
<path style="fill:#979697; stroke:none;" d="M81 306L82 307L81 306M49 307L50 308L49 307M79 307L80 308L79 307M48 308L49 309L48 308M78 308L79 309L78 308z"/>
<path style="fill:#343031; stroke:none;" d="M59 309L60 310L59 309z"/>
<path style="fill:#979697; stroke:none;" d="M76 309L77 310L76 309M47 310L48 311L47 310M74 310L75 311L74 310M72 311L73 312L72 311M46 312L47 313L46 312M71 312L72 313L71 312M69 313L70 314L69 313M45 314L46 315L45 314z"/>
<path style="fill:#9a090c; stroke:none;" d="M51 314L49 318L50 319L54 317L54 315L53 314L51 314z"/>
<path style="fill:#979697; stroke:none;" d="M67 314L68 315L67 314M44.3333 315.667L44.6667 316.333L44.3333 315.667M66 315L67 316L66 315M64 316L65 317L64 316M62 317L63 318L62 317M60 318L61 319L60 318M44.3333 319.667L44.6667 320.333L44.3333 319.667M59 319L60 320L59 319M57 320L58 321L57 320M45 321L46 322L45 321M55 321L56 322L55 321M46 322L47 323L46 322M54 322L55 323L54 322M47.6667 323.333L48.3333 323.667L47.6667 323.333M51.6667 323.333L52.3333 323.667L51.6667 323.333z"/>
</svg>
